<?xml version="1.0" encoding="iso-8859-1"?>
<!-- Uploaded to: SVG Repo, www.svgrepo.com, Generator: SVG Repo Mixer Tools -->
<!DOCTYPE svg PUBLIC "-//W3C//DTD SVG 1.1//EN" "http://www.w3.org/Graphics/SVG/1.1/DTD/svg11.dtd">
<svg fill="#000000" height="800px" width="800px" version="1.1" id="Capa_1" xmlns="http://www.w3.org/2000/svg" xmlns:xlink="http://www.w3.org/1999/xlink" 
	 viewBox="0 0 512 512" xml:space="preserve">
<g>
	<path d="M376,0H136c-22.056,0-40,17.944-40,40v432c0,22.056,17.944,40,40,40h240c22.056,0,40-17.944,40-40V40
		C416,17.944,398.056,0,376,0z M400,472c0,13.234-10.766,24-24,24H136c-13.234,0-24-10.766-24-24V40c0-13.234,10.766-24,24-24h240
		c13.234,0,24,10.766,24,24V472z"/>
	<path d="M296,456H152V120c0-4.418-3.582-8-8-8s-8,3.582-8,8v344c0,4.418,3.582,8,8,8h152c4.418,0,8-3.582,8-8S300.418,456,296,456z
		"/>
	<path d="M216,56h144v336c0,4.418,3.582,8,8,8s8-3.582,8-8V48c0-4.418-3.582-8-8-8H216c-4.418,0-8,3.582-8,8S211.582,56,216,56z"/>
	<path d="M262.47,179.295c-1.505-2.07-3.91-3.295-6.47-3.295s-4.964,1.225-6.47,3.295c-16.859,23.181-47.054,53.376-70.236,70.235
		c-2.07,1.506-3.294,3.91-3.294,6.47s1.225,4.964,3.294,6.47c23.182,16.859,53.376,47.054,70.236,70.235
		c1.505,2.07,3.91,3.295,6.47,3.295s4.964-1.225,6.47-3.295c16.859-23.181,47.054-53.376,70.236-70.235
		c2.07-1.506,3.294-3.91,3.294-6.47s-1.225-4.964-3.294-6.47C309.524,232.671,279.329,202.476,262.47,179.295z M256,314.821
		c-16.058-20.136-38.685-42.763-58.821-58.821c20.136-16.058,42.763-38.685,58.821-58.821
		c16.058,20.136,38.685,42.763,58.821,58.821C294.685,272.058,272.058,294.685,256,314.821z"/>
	<path d="M161.53,108.706c1.505,2.07,3.91,3.294,6.47,3.294s4.964-1.225,6.47-3.294c7.258-9.979,20.256-22.978,30.236-30.236
		C206.775,76.964,208,74.56,208,72s-1.225-4.964-3.294-6.47c-9.979-7.258-22.978-20.256-30.236-30.236
		C172.964,33.225,170.56,32,168,32s-4.964,1.225-6.47,3.294c-7.258,9.979-20.256,22.978-30.236,30.236
		C129.225,67.036,128,69.44,128,72s1.225,4.964,3.294,6.47C141.274,85.728,154.272,98.726,161.53,108.706z M168,52.808
		c5.705,6.617,12.575,13.487,19.192,19.192c-6.617,5.705-13.487,12.575-19.192,19.192c-5.705-6.617-12.575-13.487-19.192-19.192
		C155.425,66.295,162.295,59.425,168,52.808z"/>
	<path d="M380.706,433.53c-9.979-7.258-22.978-20.256-30.236-30.236c-1.505-2.07-3.91-3.294-6.47-3.294s-4.964,1.225-6.47,3.294
		c-7.258,9.979-20.256,22.978-30.236,30.236c-2.07,1.505-3.294,3.91-3.294,6.47s1.225,4.964,3.294,6.47
		c9.979,7.258,22.978,20.256,30.236,30.236c1.505,2.07,3.91,3.294,6.47,3.294s4.964-1.225,6.47-3.294
		c7.258-9.979,20.256-22.978,30.236-30.236c2.07-1.505,3.294-3.91,3.294-6.47S382.775,435.036,380.706,433.53z M344,459.192
		c-5.705-6.617-12.575-13.487-19.192-19.192c6.617-5.705,13.487-12.575,19.192-19.192c5.705,6.617,12.575,13.487,19.192,19.192
		C356.575,445.705,349.705,452.575,344,459.192z"/>
</g>
</svg>