<?xml version="1.0" encoding="utf-8"?>
<!-- Generator: Adobe Illustrator 23.0.3, SVG Export Plug-In . SVG Version: 6.00 Build 0)  -->
<svg version="1.1" id="Layer_1" xmlns="http://www.w3.org/2000/svg" xmlns:xlink="http://www.w3.org/1999/xlink" x="0px" y="0px"
	 viewBox="0 0 1200 1200" enable-background="new 0 0 1200 1200" xml:space="preserve">
<g>
	<path d="M875.529,1007.72c6.876,2.303,14.001,3.472,21.182,3.472c10.107,0,20.279-2.403,29.4-6.947
		c15.872-7.871,27.715-21.441,33.345-38.216l187.06-556.064c5.635-16.747,4.403-34.709-3.477-50.578
		c-7.885-15.874-21.451-27.72-38.211-33.354L803.269,224.601c-8.408-5.086-17.603-8.179-27.335-9.197l-1.431-0.486
		c-13.876-4.651-28.511-4.616-42.369,0.12H505.608c-5.292-7.014-11.927-12.853-19.742-17.374
		c-15.33-8.811-33.183-11.144-50.249-6.565L99.092,281.627c-17.112,4.572-31.396,15.54-40.207,30.884
		c-8.853,15.325-11.186,33.188-6.57,50.291l152.335,566.528c4.611,17.119,15.598,31.398,30.924,40.204
		c15.2,8.767,33.41,11.163,50.291,6.568l155.752-41.873h215.479L875.529,1007.72z M452.901,201.722c9.232,0,18.4,2.463,26.516,7.119
		c4.746,2.741,9.024,6.162,12.714,10.172c2.19,2.384,4.209,5.019,5.973,7.801c2.755,4.51,4.852,9.364,6.232,14.415L656.67,807.756
		c7.653,28.396-9.227,57.731-37.628,65.396l-336.534,90.486c-13.788,3.72-28.155,1.84-40.48-5.278
		c-12.367-7.123-21.201-18.624-24.881-32.387L64.775,359.445c-3.718-13.779-1.843-28.155,5.283-40.48
		c7.121-12.367,18.622-21.201,32.387-24.875l336.497-90.53C443.432,202.341,448.132,201.722,452.901,201.722z M622.395,885.616
		c35.262-9.494,56.231-45.909,46.735-81.175l-50.295-187.03c8.917,1.986,18.298,0.234,25.831-4.984
		c12.126-8.45,18.932-25.421,16.557-41.262c-2.741-18.643-16.182-32.269-29.715-44.628c-10.172-9.272-24.506-22.344-34.678-31.655
		l-0.681-0.623h-2.977l-0.676,0.611c-1.208,1.09-2.463,2.246-3.755,3.438c-0.509,0.47-1.023,0.945-1.546,1.424l-70.399-261.86
		c-0.912-3.385-2.107-6.709-3.56-9.922h255.815c1.532,0,3.023,0.081,4.5,0.197c8.501,0.722,16.793,3.507,23.974,8.056
		c15.575,9.871,24.877,26.731,24.877,45.098v586.666c0,29.419-23.932,53.351-53.351,53.351H489.598L622.395,885.616z
		 M769.049,934.228c36.54,0,66.264-29.724,66.264-66.262V654.67l38.767-23.453c17.27-10.445,25.256-34.181,17.807-52.902
		c-4.982-12.566-15.922-20.37-28.553-20.37c-5.815,0-11.76,1.727-17.196,4.996l-6.056,3.66l-2.602-6.575
		c-0.565-1.451-1.278-2.931-2.167-4.51V281.3c0-12.721-3.727-25.206-10.607-35.861l276.034,92.847
		c27.868,9.397,42.906,39.716,33.521,67.591L947.247,961.906c-4.533,13.51-14.075,24.439-26.877,30.78
		c-12.742,6.336-27.201,7.327-40.716,2.778L697.66,934.228H769.049z"/>
	<path d="M1007.845,439.645l26.641,8.961c1.44,0.479,2.949-0.035,3.672-1.262c0.699-1.181,0.449-2.683-0.389-3.424
		c-0.028-0.035-2.357-3.378,3.986-11.369l5.769-6.774l18.987,6.213l-0.042,8.681c-0.634,9.975-4.426,11.624-4.301,11.624
		c-1.162,0.164-2.07,0.873-2.417,1.901l-0.366,1.776l1.028,1.042l0.486,0.377c0.356,0.211,0.778,0.359,1.491,0.602l14.881,5.005
		c0.463,0.155,0.889,0.222,1.278,0.222c1.232,0,2.102-0.664,2.533-1.368c0.565-0.931,0.708-2.519-0.75-3.935
		c-0.787-0.796-3.385-4.51-3.801-18.955l-0.069-2.53c-0.125-4.16-0.491-16.233-1.782-66.507c-0.134-1.215-0.977-2.225-2.195-2.637
		c-1.222-0.414-2.495-0.113-3.408,0.845c-0.375,0.424-37.23,42.547-39.318,44.816c-0.593,0.651-1.505,1.715-2.625,3.037
		c-3.676,4.317-14.862,17.46-18.186,17.712c-1.852-0.15-3.074,0.979-3.403,2.155l-0.528,1.924l0.852,0.426
		C1006.247,438.798,1006.886,439.319,1007.845,439.645z M1066.492,423.651l-13.765-4.489l13.455-16.767L1066.492,423.651z"/>
	<path d="M1044.718,477.928c-3.616-1.213-7.542-0.713-11.056,1.414l-0.718,0.433l-0.306-0.778c-1.514-3.82-4.343-6.593-7.959-7.808
		c-3.616-1.22-7.542-0.715-11.056,1.41c-6.95,4.199-10.163,13.758-7.167,21.309l11.774,29.629l27.28-16.494
		c6.95-4.202,10.163-13.76,7.167-21.309C1051.163,481.917,1048.334,479.143,1044.718,477.928z"/>
	<path d="M744.506,351.273c0.282-1.345-0.44-2.688-1.463-3.114c-0.032-0.023-3.31-2.449,0.153-12.047l3.31-8.258l19.978-0.169
		l2.727,8.244c2.56,9.586-0.445,12.39-0.37,12.387c0.005,0,0.005,0,0.005,0c-1.056,0.528-1.69,1.491-1.69,2.579l0.213,1.799
		l1.315,0.657l0.579,0.201c0.421,0.086,0.884,0.093,1.602,0.093h15.705c2.009,0,3.005-1.239,3.246-2.296
		c0.241-1.065-0.13-2.618-1.968-3.496c-1-0.502-4.644-3.19-9.64-16.726l-0.977-2.676c-1.537-4.153-5.926-16.006-22.793-62.194
		c-1.033-2.213-4.769-2.306-5.885,0.088c-0.218,0.521-21.719,52.198-22.974,55.011c-0.357,0.806-0.875,2.102-1.519,3.711
		c-2.107,5.267-8.519,21.291-11.598,22.592c-1.931,0.495-2.653,2.037-2.519,3.278c0.009,0.081,0.019,0.162,0.032,0.245l0.241,1.889
		h0.982c0.532,0.352,1.232,0.574,2.116,0.574h28.113C742.945,353.646,744.214,352.669,744.506,351.273z M763.813,319.787
		l-14.483,0.134l7.417-20.159L763.813,319.787z"/>
	<path d="M770.878,402.103c-0.875-5.947-5.014-10.158-9.177-13.959l-10.066-9.195l-1.019-0.625h-1.843l-10.663,9.82
		c-4.162,3.801-8.297,8.01-9.186,13.962c-0.759,5.232,1.514,10.829,5.528,13.619c2.959,2.046,6.635,2.505,9.927,1.417
		c-0.051,2.204-0.319,3.558-1.014,6.799l-0.208,0.972l0.551,0.831c1.102,1.664,3.417,2.66,6.195,2.66c0,0,0.005,0,0.009,0
		c2.773-0.002,5.088-0.998,6.186-2.665l0.556-0.845l-0.5-2.188c-0.607-2.614-0.889-3.838-0.898-5.625
		c3.324,1.16,7.084,0.729,10.098-1.359C769.378,412.926,771.647,407.326,770.878,402.103z"/>
	<polygon points="416.569,568.59 338.962,502.682 304.876,598.625 382.488,664.532 	"/>
	<polygon points="281.328,782.321 255.419,760.317 244.038,792.347 269.947,814.351 	"/>
	<path d="M233.801,852.588c1.093,0.222,5.311,1.868,13.649,13.649l1.537,2.181c2.468,3.477,9.589,13.51,38.267,54.286
		c0.593,0.706,1.482,1.097,2.417,1.097c0.287,0,0.583-0.039,0.875-0.116c1.241-0.336,2.144-1.294,2.366-2.593
		c0.074-0.56,7.422-56.048,7.903-59.092c0.134-0.873,0.301-2.269,0.505-3.998c0.667-5.628,2.695-22.754,5.324-24.807
		c1.699-0.956,2.065-2.634,1.574-3.843c-0.468-1.262-1.861-2.292-3.949-1.718l-27.146,7.299c-1.468,0.396-2.435,1.664-2.361,3.088
		c0.074,1.37,1.116,2.482,2.227,2.634c0.037,0.014,3.829,1.505,2.977,11.672l-1.051,8.832l-19.251,5.352l-4.778-7.251
		c-4.945-8.57-2.796-12.059-2.857-12.059c0.884-0.782,1.245-1.878,0.958-2.931l-0.681-1.69l-1.75-0.345l-0.31,0.019
		c-0.292,0.018-0.912,0.153-1.556,0.324l-15.168,4.079c-1.935,0.526-2.574,1.979-2.528,3.063
		C231.037,850.812,231.796,852.215,233.801,852.588z M276.323,890.952l-12.029-17.504l13.955-3.892L276.323,890.952z
		 M305.501,832.211l-0.23-0.856c0.006-0.005,0.01-0.012,0.016-0.017l0.247,0.869C305.524,832.207,305.51,832.209,305.501,832.211z
		 M304.885,829.924L304.885,829.924L304.885,829.924L304.885,829.924z"/>
	<polygon points="440.122,384.893 466.031,406.897 477.407,374.867 451.498,352.863 	"/>
	<path d="M415.43,339.689c0.194,0.037,0.398,0.056,0.607,0.056c0.361,0,0.741-0.056,1.144-0.164l27.146-7.299
		c1.468-0.396,2.44-1.667,2.361-3.09c-0.074-1.283-0.986-2.336-2.264-2.646c-0.407-0.192-3.746-2.058-2.94-11.656l1.051-8.836
		l19.251-5.35l4.773,7.253c4.949,8.575,2.797,12.061,2.857,12.061c-0.88,0.785-1.241,1.88-0.954,2.931l0.685,1.685l1.736,0.343
		l0.296-0.016c0.431-0.023,0.88-0.137,1.574-0.324l15.168-4.079c1.94-0.521,2.579-1.972,2.533-3.058
		c-0.042-1.09-0.801-2.496-2.806-2.866c-1.093-0.227-5.315-1.882-13.654-13.649l-1.741-2.472
		c-2.648-3.739-10.135-14.29-38.068-54.006c-0.787-0.928-2.023-1.306-3.283-0.972c-1.236,0.333-2.139,1.285-2.371,2.593
		c-0.074,0.56-7.417,56.048-7.899,59.09c-0.134,0.873-0.301,2.266-0.505,3.993c-0.667,5.63-2.699,22.759-5.324,24.812
		c-1.695,0.954-2.065,2.628-1.579,3.836C413.574,338.809,414.398,339.503,415.43,339.689z M445.127,276.267l12.029,17.501
		l-13.955,3.891L445.127,276.267z"/>
</g>
</svg>
